<svg width="56" height="56" viewBox="0 0 56 56" version="1.1" xmlns="http://www.w3.org/2000/svg" xmlns:xlink="http://www.w3.org/1999/xlink">
<title>PrevGov</title>
<desc>Created using Figma</desc>
<g id="Canvas" transform="translate(609 1599)">
<g id="PrevGov">
<g id="Wreath">
<g id="layer1">
<g id="path8735">
<use xlink:href="#path0_fill" transform="translate(-605 -1595)" fill="#BDBDBD"/>
</g>
</g>
</g>
<g id="Line">
<use xlink:href="#path1_stroke" transform="matrix(0.707107 -0.707107 0.707107 0.707107 -605 -1543)" fill="#BDBDBD"/>
</g>
</g>
</g>
<defs>
<path id="path0_fill" d="M 13.6153 5.36392e-07C 13.5329 0.064171 13.4522 0.128469 13.374 0.194179C 13.4596 0.129379 13.5432 0.0665611 13.6153 5.36392e-07ZM 32.3867 -2.79745e-08C 32.4589 0.0665605 32.5425 0.129378 32.6281 0.194178C 32.5498 0.128476 32.4691 0.0641712 32.3867 -2.79745e-08ZM 13.3599 0.20574C 11.5666 1.55123 7.08854 2.55888 8.04861 4.65334C 10.4601 4.95315 10.9466 2.24169 13.3599 0.20574L 13.3599 0.20574ZM 32.6399 0.20574C 35.0531 2.24169 35.5417 4.95338 37.9533 4.65305C 38.9134 2.55888 34.4331 1.55123 32.6399 0.20574ZM 7.54971 2.40643C 5.29441 4.2965 5.10299 5.69976 5.86495 6.8774C 7.89342 5.21302 6.76183 4.80654 7.54957 2.40672L 7.54971 2.40643ZM 38.4501 2.40643C 39.2378 4.80624 38.1085 5.2128 40.137 6.87711C 40.8991 5.69946 40.7054 4.29628 38.4501 2.40643L 38.4501 2.40643ZM 5.19892 4.97483C 3.05366 7.43937 3.08744 9.01329 4.12926 10.1737C 6.06499 7.99587 4.75317 7.74488 5.19892 4.97483ZM 40.8001 4.97483C 41.2459 7.74495 39.9341 7.99594 41.8698 10.1737C 42.9116 9.01329 42.9454 7.43937 40.8001 4.97483ZM 10.1507 5.21755C 9.04795 5.80818 8.54557 5.33789 7.80952 5.58973C 7.47494 5.70421 7.09407 5.96831 6.58437 6.54672C 8.22399 7.33933 9.09941 6.32231 10.1507 5.2175L 10.1507 5.21755ZM 35.8513 5.21755C 36.9026 6.32234 37.778 7.33938 39.4177 6.54677C 38.908 5.96833 38.5248 5.70422 38.1902 5.58978C 37.4541 5.33794 36.9541 5.80823 35.8513 5.21761L 35.8513 5.21755ZM 8.54319 7.60776C 7.53665 8.37064 6.92333 8.08787 6.24601 8.33361C 5.83966 8.48106 5.41091 8.81826 4.86078 9.68591C 6.79844 10.2718 7.58216 9.00221 8.54319 7.60772L 8.54319 7.60776ZM 37.4573 7.60776C 38.4184 9.00222 39.2021 10.2719 41.1398 9.68594C 40.5896 8.81824 40.1608 8.48108 39.7545 8.33365C 39.0773 8.08791 38.464 8.37064 37.4573 7.60779L 37.4573 7.60776ZM 3.01891 8.25039C 1.14882 11.3595 1.48948 13.0756 2.85416 14.145C 4.5505 11.3899 3.06761 11.3672 3.01891 8.25039L 3.01891 8.25039ZM 42.9846 8.25039C 42.9359 11.3672 41.453 11.39 43.1493 14.1451C 44.514 13.0756 44.8547 11.3596 42.9846 8.25039ZM 7.18588 10.4858C 5.66002 12.1309 4.71629 10.6563 3.55916 13.4701C 5.79286 13.7388 6.40439 12.1964 7.18588 10.4858ZM 38.8147 10.4858C 39.5961 12.1964 40.2077 13.7388 42.4414 13.4701C 41.2842 10.6564 40.3405 12.1309 38.8147 10.4858ZM 1.26584 12.2537C -0.112191 16.0399 0.626415 17.8365 2.34248 18.7148C 3.60638 15.3515 1.98224 15.6429 1.26584 12.2537L 1.26584 12.2537ZM 44.7354 12.2537C 44.019 15.6429 42.3949 15.3515 43.6588 18.7148C 45.3749 17.8366 46.1135 16.0399 44.7354 12.2537L 44.7354 12.2537ZM 6.2919 13.8117C 4.97773 15.9284 3.63244 14.5183 2.96916 17.8317C 5.46266 17.653 5.80355 15.8426 6.2919 13.8117L 6.2919 13.8117ZM 39.7094 13.8117C 40.1977 15.8426 40.5386 17.653 43.0321 17.8317C 42.3689 14.5183 41.0236 15.9284 39.7094 13.8117L 39.7094 13.8117ZM 0.161721 16.903C -0.458039 21.3351 0.761396 23.119 2.83016 23.6785C 3.42393 19.7323 1.72627 20.4217 0.161721 16.903ZM 45.8381 16.903C 44.2736 20.4216 42.5782 19.7323 43.172 23.6785C 45.2407 23.1189 46.4579 21.3351 45.8381 16.903ZM 5.98598 17.4417C 5.04856 20.0445 3.25852 18.8198 3.30596 22.5735C 5.97455 21.8054 5.92614 19.7612 5.98598 17.4417ZM 40.016 17.4417C 40.0759 19.7612 40.0275 21.8054 42.6961 22.5735C 42.7435 18.8198 40.9535 20.0445 40.016 17.4417ZM 6.51242 21.5934C 6.20404 24.6506 3.94482 23.8121 5.00884 27.8464C 7.67854 26.3037 7.07376 24.1101 6.51242 21.5934ZM 39.4889 21.5934C 38.9275 24.1101 38.3227 26.3037 40.9924 27.8464C 42.0565 23.8121 39.7972 24.6506 39.4889 21.5934ZM 0.0896974 22.5735C 0.617363 27.5177 2.41175 29.1148 4.79306 29.164C 4.36847 24.7506 2.72576 25.948 0.0896974 22.5735L 0.0896974 22.5735ZM 45.9116 22.5735C 43.2755 25.948 41.6305 24.7506 41.2059 29.164C 43.5872 29.1148 45.3839 27.5177 45.9116 22.5735ZM 8.11774 25.5971C 8.66927 28.9667 6.00158 28.7106 8.308 32.7355C 10.728 30.3149 9.44665 28.1374 8.11774 25.5971ZM 37.8828 25.5971C 36.5539 28.1374 35.2703 30.3149 37.6902 32.7355C 39.9967 28.7106 37.3313 28.9667 37.8828 25.5971ZM 1.50492 28.4843C 3.49842 33.6394 5.88678 34.8396 8.45669 34.2102C 6.72701 29.5951 5.30814 31.3507 1.50492 28.4843L 1.50492 28.4843ZM 44.4941 28.4843C 40.6909 31.3507 39.2743 29.5951 37.5447 34.2102C 40.1146 34.8396 42.5006 33.6395 44.4941 28.4843L 44.4941 28.4843ZM 10.8398 29.231C 12.4647 32.6615 9.53824 33.2041 13.239 36.7991C 15.0795 33.4754 13.04 31.5385 10.8398 29.231ZM 35.1593 29.231C 32.959 31.5387 30.9195 33.4755 32.76 36.7991C 36.4607 33.204 33.5343 32.6614 35.1593 29.231ZM 14.5872 32.1298C 17.4325 35.2492 14.4992 36.7729 19.6038 39.3953C 20.4757 35.268 17.6776 33.8698 14.5872 32.1298ZM 31.414 32.1298C 28.3236 33.8698 25.5256 35.2679 26.3975 39.3953C 31.5021 36.7729 28.5689 35.2492 31.414 32.1298ZM 4.66803 34.3349C 8.38229 39.2334 11.3004 39.786 13.8514 38.3295C 10.5858 33.9281 9.61093 36.236 4.66803 34.3349ZM 41.3318 34.3349C 36.3885 36.236 35.4163 33.928 32.1499 38.3295C 34.7013 39.7858 37.6175 39.2328 41.3318 34.3349ZM 16.3789 38.9305C 14.6952 38.9242 13.1808 39.7995 9.69401 39.55C 15.2375 43.5522 18.5188 43.1946 20.7552 40.8214C 18.7622 39.3509 17.5311 38.9348 16.379 38.9305L 16.3789 38.9305ZM 29.6209 38.9305C 28.4689 38.9348 27.2399 39.3509 25.247 40.8214C 27.4832 43.1946 30.7647 43.5523 36.3082 39.55C 32.8215 39.7995 31.3047 38.9242 29.621 38.9305L 29.6209 38.9305ZM 21.425 41.0502C 21.8217 41.414 22.2197 41.7534 22.6154 42.0743C 19.4174 43.6326 15.0143 45.7132 14 45.5487L 14.8399 49C 14.8259 46.8356 18.7706 45.773 23.0677 42.4349C 27.3653 45.7735 31.3096 46.8354 31.2955 49L 32.1354 45.5487C 31.121 45.7132 26.718 43.6328 23.52 42.0743C 23.9158 41.7533 24.3135 41.4142 24.7104 41.0502C 24.2508 41.2743 23.6783 41.556 23.0675 41.8547C 22.4574 41.5564 21.8838 41.2741 21.4247 41.0502L 21.425 41.0502Z"/>
<path id="path1_stroke" d="M 0 0L 73.5391 0L 73.5391 -5L 0 -5L 0 0Z"/>
</defs>
</svg>
