<?xml version="1.0"?>
<svg xmlns:rdf="http://www.w3.org/1999/02/22-rdf-syntax-ns#" xmlns="http://www.w3.org/2000/svg" xmlns:cc="http://creativecommons.org/ns#" xmlns:dc="http://purl.org/dc/elements/1.1/" xmlns:svg="http://www.w3.org/2000/svg" id="svg8890" viewBox="0 0 627.51 668.41" version="1.1">
  <g id="layer1" transform="translate(-21.171 -47.084)">
    <path id="path8735" fill="#156d41" d="m209.04 52.588c-1.1097 0.86749-2.1964 1.7367-3.25 2.625 1.1525-0.876 2.2786-1.7252 3.25-2.625zm252.81-0.000006c0.97138 0.8998 2.0975 1.749 3.25 2.625-1.0536-0.8882-2.1402-1.7575-3.25-2.625zm-256.25 2.7813c-24.151 18.189-84.461 31.811-71.531 60.125 32.477 4.053 39.029-32.602 71.531-60.125zm259.66 0c32.5 27.523 39.08 64.181 71.56 60.121 12.93-28.31-47.41-41.932-71.56-60.121zm-337.91 29.75c-30.374 25.551-32.952 44.521-22.69 60.441 27.319-22.5 12.079-27.995 22.688-60.437zm416.16-0.000001c10.609 32.442-4.6003 37.938 22.719 60.437 10.264-15.92 7.6545-34.889-22.719-60.437zm-447.82 34.721c-28.892 33.317-28.437 54.594-14.406 70.281 26.07-29.441 8.4027-32.834 14.406-70.281zm479.47 0c6.0035 37.448-11.664 40.841 14.406 70.281 14.031-15.687 14.486-36.964-14.406-70.281zm-412.78 3.2813c-14.852 7.9844-21.618 1.6267-31.531 5.0313-4.506 1.5475-9.6355 5.1178-16.5 12.937 22.082 10.715 33.872-3.0337 48.031-17.969zm346.13 0c14.159 14.935 25.949 28.684 48.031 17.969-6.8645-7.8196-12.025-11.39-16.531-12.937-9.9133-3.4045-16.648 2.9531-31.5-5.0313zm-367.78 32.312c-13.556 10.313-21.816 6.4904-30.938 9.8125-5.4726 1.9933-11.247 6.5517-18.656 18.281 26.096 7.9209 36.651-9.2426 49.594-28.094zm389.41 0c12.943 18.851 23.498 36.015 49.594 28.094-7.409-11.73-13.184-16.288-18.656-18.281-9.1211-3.3221-17.381 0.5001-30.938-9.8125zm-463.81 8.6875c-25.186 42.031-20.598 65.23-2.2188 79.687 22.846-37.245 2.8747-37.553 2.2188-79.687zm538.25-0.00001c-0.656 42.134-20.628 42.443 2.2187 79.688 18.379-14.458 22.967-37.656-2.2187-79.688zm-482.13 30.219c-20.55 22.24-33.26 2.3053-48.844 40.344 30.083 3.6324 38.319-17.219 48.844-40.344zm425.97 0c10.525 23.125 18.761 43.976 48.844 40.344-15.584-38.038-28.294-18.104-48.844-40.344zm-505.7 23.9c-18.559 51.183-8.6116 75.471 14.5 87.344 17.022-45.466-4.8516-41.527-14.5-87.344zm585.44 0c-9.6484 45.817-31.522 41.877-14.5 87.344 23.112-11.872 33.059-36.161 14.5-87.344zm-517.75 21.062c-17.699 28.614-35.817 9.5513-44.75 54.344 33.582-2.4162 38.173-26.89 44.75-54.344zm450.06 0c6.577 27.454 11.168 51.928 44.75 54.344-8.9328-44.792-27.051-25.73-44.75-54.344zm-532.62 41.79c-8.3468 59.915 8.0763 84.03 35.938 91.594 7.9968-53.347-14.867-44.027-35.938-91.594zm615.16 0c-21.07 47.566-43.903 38.247-35.906 91.594 27.861-7.5643 44.253-31.679 35.906-91.594zm-536.72 7.2813c-12.625 35.187-36.733 18.63-36.094 69.375 35.94-10.384 35.288-38.018 36.094-69.375zm458.31 0c0.8061 31.357 0.1542 58.991 36.094 69.375 0.6391-50.745-23.468-34.188-36.094-69.375zm-451.22 56.125c-4.1532 41.329-34.58 29.994-20.25 84.531 35.955-20.855 27.81-50.509 20.25-84.531zm444.12 0c-7.5598 34.023-15.705 63.676 20.25 84.531 14.33-54.537-16.097-43.202-20.25-84.531zm-530.62 13.25c7.1065 66.838 31.273 88.428 63.344 89.094-5.7183-59.663-27.842-43.476-63.344-89.094zm617.12 0c-35.502 45.618-57.657 29.431-63.375 89.094 32.071-0.6659 56.268-22.256 63.375-89.094zm-509 40.875c7.4279 45.551-28.5 42.089 2.5625 96.5 32.592-32.723 15.335-62.159-2.5625-96.5zm400.87-0.00001c-17.898 34.341-35.185 63.777-2.5937 96.5 31.063-54.411-4.8341-50.949 2.5937-96.5zm-489.93 39.03c26.848 69.69 59.014 85.914 93.625 77.406-23.295-62.389-42.404-38.657-93.625-77.406zm578.97 0c-51.221 38.75-70.299 15.017-93.594 77.406 34.611 8.508 66.745-7.7157 93.594-77.406zm-453.25 10.094c21.884 46.376-17.529 53.711 32.312 102.31 24.788-44.932-2.6793-71.116-32.312-102.31zm327.53-0.00001c-29.633 31.197-57.101 57.38-32.313 102.31 49.841-48.601 10.428-55.936 32.313-102.31zm-277.06 39.188c38.319 42.169-1.1854 62.768 67.562 98.219 11.743-55.795-25.941-74.697-67.562-98.219zm226.62 0c-41.622 23.522-79.305 42.423-67.562 98.219 68.748-35.451 29.244-56.05 67.562-98.219zm-360.21 29.81c50.023 66.22 89.323 73.69 123.68 54-43.98-59.5-57.11-28.3-123.68-54zm493.78 0c-66.575 25.7-79.669-5.5012-123.66 54 34.362 19.687 73.637 12.212 123.66-54zm-336.06 62.125c-22.676-0.085-43.072 11.748-90.031 8.375 74.658 54.104 118.85 49.269 148.97 17.188-26.841-19.879-43.422-25.504-58.938-25.563zm178.34 0c-15.515 0.0582-32.066 5.6832-58.906 25.563 30.116 32.082 74.311 36.917 148.97-17.188-46.959 3.3728-67.387-8.4601-90.062-8.375zm-110.38 28.656c5.3424 4.917 10.703 9.5055 16.031 13.844-43.069 21.066-102.37 49.192-116.03 46.969l11.312 46.656c-0.18835-29.26 52.937-43.624 110.81-88.75 57.88 45.133 111 59.488 110.81 88.75l11.312-46.656c-13.661 2.2234-72.96-25.901-116.03-46.969 5.3308-4.34 10.686-8.9244 16.031-13.844-6.1893 3.0296-13.899 6.8373-22.125 10.875-8.2168-4.0329-15.942-7.8484-22.125-10.875z"/>
  </g>
  <metadata>
    <rdf:RDF>
      <cc:Work>
        <dc:format>image/svg+xml</dc:format>
        <dc:type rdf:resource="http://purl.org/dc/dcmitype/StillImage"/>
        <cc:license rdf:resource="http://creativecommons.org/licenses/publicdomain/"/>
        <dc:publisher>
          <cc:Agent rdf:about="http://openclipart.org/">
            <dc:title>Openclipart</dc:title>
          </cc:Agent>
        </dc:publisher>
        <dc:title>Olive Wreath</dc:title>
        <dc:date>2012-07-03T20:20:45</dc:date>
        <dc:description>simple Olive wreath</dc:description>
        <dc:source>http://openclipart.org/detail/171024/olive-wreath-by-last-dino-171024</dc:source>
        <dc:creator>
          <cc:Agent>
            <dc:title>Last-Dino</dc:title>
          </cc:Agent>
        </dc:creator>
        <dc:subject>
          <rdf:Bag>
            <rdf:li>Olympics</rdf:li>
            <rdf:li>award</rdf:li>
            <rdf:li>caesar</rdf:li>
            <rdf:li>clip art</rdf:li>
            <rdf:li>clipart</rdf:li>
            <rdf:li>crown</rdf:li>
            <rdf:li>greek</rdf:li>
            <rdf:li>laurel</rdf:li>
            <rdf:li>olive</rdf:li>
            <rdf:li>wreath</rdf:li>
          </rdf:Bag>
        </dc:subject>
      </cc:Work>
      <cc:License rdf:about="http://creativecommons.org/licenses/publicdomain/">
        <cc:permits rdf:resource="http://creativecommons.org/ns#Reproduction"/>
        <cc:permits rdf:resource="http://creativecommons.org/ns#Distribution"/>
        <cc:permits rdf:resource="http://creativecommons.org/ns#DerivativeWorks"/>
      </cc:License>
    </rdf:RDF>
  </metadata>
</svg>
