<svg width="39" height="36" viewBox="0 0 39 36" version="1.1" xmlns="http://www.w3.org/2000/svg" xmlns:xlink="http://www.w3.org/1999/xlink">
<title>NotVoted</title>
<desc>Created using Figma</desc>
<g id="Canvas" transform="translate(808 1475)">
<g id="NotVoted">
<g id="NotVoted">
<mask id="mask0_outline_ins">
<use xlink:href="#path0_fill" fill="white" transform="translate(-808 -1475)"/>
</mask>
<g mask="url(#mask0_outline_ins)">
<use xlink:href="#path1_stroke_2x" transform="translate(-808 -1475)"/>
</g>
</g>
</g>
</g>
<defs>
<path id="path0_fill" d="M 0 0L 39 0L 39 36L 0 36L 0 0Z"/>
<path id="path1_stroke_2x" d="M 0 0L 0 -3L -3 -3L -3 0L 0 0ZM 39 0L 42 0L 42 -3L 39 -3L 39 0ZM 39 36L 39 39L 42 39L 42 36L 39 36ZM 0 36L -3 36L -3 39L 0 39L 0 36ZM 0 3L 39 3L 39 -3L 0 -3L 0 3ZM 36 0L 36 36L 42 36L 42 0L 36 0ZM 39 33L 0 33L 0 39L 39 39L 39 33ZM 3 36L 3 0L -3 0L -3 36L 3 36Z"/>
</defs>
</svg>
